<svg data-v-423bf9ae="" xmlns="http://www.w3.org/2000/svg" width="200" height="31" viewBox="0 0 573 90" class="iconLeft"><!----><!----><!----><g data-v-423bf9ae="" id="cf9fec87-f7f3-423c-aaa4-5d5ebb4939d4" fill="#000000" transform="matrix(5.639098067841383,0,0,5.639098067841383,144.0789468704432,-1.9736834614938772)"><path d="M1.12 13.51L1.12 3.71L7.10 3.71L7.10 4.91L2.45 4.91L2.45 7.78L6.15 7.78L6.15 8.99L2.45 8.99L2.45 12.31L7.22 12.31L7.22 13.51L1.12 13.51ZM12.00 6.51L12.00 6.51Q14.80 6.51 14.80 9.73L14.80 9.73L14.80 13.51L13.54 13.51L13.54 9.73L13.54 9.73Q13.54 8.62 13.13 8.13L13.13 8.13L13.13 8.13Q12.71 7.63 11.75 7.63L11.75 7.63L11.75 7.63Q11.13 7.63 10.63 7.85L10.63 7.85L10.63 7.85Q10.12 8.08 9.87 8.53L9.87 8.53L9.87 13.51L8.61 13.51L8.61 6.65L9.59 6.65L9.73 7.38L9.73 7.38Q10.28 6.89 10.83 6.70L10.83 6.70L10.83 6.70Q11.38 6.51 12.00 6.51L12.00 6.51ZM18.38 13.65L18.38 13.65Q17.57 13.65 16.96 13.46L16.96 13.46L16.96 13.46Q16.35 13.27 16.03 13.05L16.03 13.05L16.18 11.83L16.18 11.83Q16.46 12.08 17.05 12.31L17.05 12.31L17.05 12.31Q17.63 12.53 18.33 12.53L18.33 12.53L18.33 12.53Q18.98 12.53 19.34 12.31L19.34 12.31L19.34 12.31Q19.70 12.08 19.70 11.68L19.70 11.68L19.70 11.68Q19.70 11.20 19.31 10.96L19.31 10.96L19.31 10.96Q18.91 10.71 18.33 10.54L18.33 10.54L18.33 10.54Q17.68 10.37 17.24 10.18L17.24 10.18L17.24 10.18Q16.80 10.00 16.48 9.60L16.48 9.60L16.48 9.60Q16.17 9.21 16.17 8.57L16.17 8.57L16.17 8.57Q16.17 7.69 16.80 7.10L16.80 7.10L16.80 7.10Q17.43 6.51 18.75 6.51L18.75 6.51L18.75 6.51Q19.35 6.51 19.77 6.63L19.77 6.63L19.77 6.63Q20.19 6.75 20.61 6.96L20.61 6.96L20.45 8.11L20.45 8.11Q20.12 7.83 19.71 7.67L19.71 7.67L19.71 7.67Q19.31 7.50 18.77 7.50L18.77 7.50L18.77 7.50Q18.16 7.50 17.80 7.73L17.80 7.73L17.80 7.73Q17.44 7.97 17.44 8.43L17.44 8.43L17.44 8.43Q17.44 8.74 17.61 8.93L17.61 8.93L17.61 8.93Q17.78 9.11 18.09 9.24L18.09 9.24L18.09 9.24Q18.40 9.37 19.04 9.56L19.04 9.56L19.04 9.56Q19.84 9.80 20.42 10.23L20.42 10.23L20.42 10.23Q21 10.67 21 11.61L21 11.61L21 11.61Q21 12.45 20.41 13.05L20.41 13.05L20.41 13.05Q19.81 13.65 18.38 13.65L18.38 13.65ZM25.52 13.65L25.52 13.65Q24.35 13.65 23.51 13.17L23.51 13.17L23.51 13.17Q22.68 12.68 22.25 11.86L22.25 11.86L22.25 11.86Q21.81 11.03 21.81 10.02L21.81 10.02L21.81 10.02Q21.81 9.06 22.21 8.25L22.21 8.25L22.21 8.25Q22.61 7.45 23.37 6.98L23.37 6.98L23.37 6.98Q24.14 6.51 25.17 6.51L25.17 6.51L25.17 6.51Q26.49 6.51 27.31 7.28L27.31 7.28L27.31 7.28Q28.13 8.05 28.13 9.41L28.13 9.41L28.13 9.41Q28.13 9.76 28.07 10.08L28.07 10.08L23.10 10.08L23.10 10.08Q23.23 11.41 23.91 11.97L23.91 11.97L23.91 11.97Q24.60 12.53 25.68 12.53L25.68 12.53L25.68 12.53Q26.75 12.53 27.65 12.12L27.65 12.12L27.82 13.12L27.82 13.12Q26.63 13.65 25.52 13.65L25.52 13.65ZM23.21 9.21L26.82 9.21L26.82 9.21Q26.82 8.47 26.40 8.05L26.40 8.05L26.40 8.05Q25.98 7.63 25.14 7.63L25.14 7.63L25.14 7.63Q24.33 7.63 23.87 8.03L23.87 8.03L23.87 8.03Q23.41 8.43 23.21 9.21L23.21 9.21ZM37.41 6.51L37.41 6.51Q40.04 6.51 40.04 9.46L40.04 9.46L40.04 13.51L38.78 13.51L38.78 9.48L38.78 9.48Q38.78 8.51 38.40 8.07L38.40 8.07L38.40 8.07Q38.02 7.63 37.17 7.63L37.17 7.63L37.17 7.63Q35.35 7.63 35.35 9.53L35.35 9.53L35.35 13.51L34.09 13.51L34.09 9.73L34.09 9.73Q34.09 8.55 33.68 8.09L33.68 8.09L33.68 8.09Q33.26 7.63 32.48 7.63L32.48 7.63L32.48 7.63Q31.86 7.63 31.39 7.85L31.39 7.85L31.39 7.85Q30.91 8.08 30.66 8.53L30.66 8.53L30.66 13.51L29.40 13.51L29.40 6.65L30.38 6.65L30.52 7.38L30.52 7.38Q31.04 6.92 31.56 6.71L31.56 6.71L31.56 6.71Q32.09 6.51 32.69 6.51L32.69 6.51L32.69 6.51Q34.26 6.51 34.90 7.88L34.90 7.88L34.90 7.88Q35.62 6.51 37.41 6.51L37.41 6.51ZM45.05 6.51L45.05 6.51Q45.98 6.51 46.68 7L46.68 7L46.68 7Q47.39 7.49 47.77 8.31L47.77 8.31L47.77 8.31Q48.15 9.13 48.15 10.08L48.15 10.08L48.15 10.08Q48.15 11.06 47.73 11.88L47.73 11.88L47.73 11.88Q47.32 12.70 46.61 13.17L46.61 13.17L46.61 13.17Q45.91 13.65 45.05 13.65L45.05 13.65L45.05 13.65Q44.42 13.65 43.83 13.39L43.83 13.39L43.83 13.39Q43.25 13.13 42.92 12.67L42.92 12.67L42.78 13.51L41.66 13.51L41.66 3.01L42.92 3.01L42.92 7.45L42.92 7.45Q43.30 7.01 43.87 6.76L43.87 6.76L43.87 6.76Q44.44 6.51 45.05 6.51L45.05 6.51ZM44.90 12.53L44.90 12.53Q45.78 12.53 46.32 11.82L46.32 11.82L46.32 11.82Q46.86 11.12 46.86 10.08L46.86 10.08L46.86 10.08Q46.86 9.02 46.32 8.32L46.32 8.32L46.32 8.32Q45.78 7.63 44.90 7.63L44.90 7.63L44.90 7.63Q44.03 7.63 43.44 8.27L43.44 8.27L43.44 8.27Q42.85 8.90 42.85 10.08L42.85 10.08L42.85 10.08Q42.85 11.30 43.43 11.91L43.43 11.91L43.43 11.91Q44.02 12.53 44.90 12.53L44.90 12.53ZM51.21 13.65L51.21 13.65Q50.29 13.65 49.86 13.17L49.86 13.17L49.86 13.17Q49.43 12.70 49.43 12.00L49.43 12.00L49.43 3.01L50.69 3.01L50.69 11.27L50.69 11.27Q50.69 11.89 50.77 12.17L50.77 12.17L50.77 12.17Q50.85 12.45 51.07 12.54L51.07 12.54L51.07 12.54Q51.30 12.64 51.80 12.64L51.80 12.64L51.62 13.65L51.21 13.65ZM56.04 13.65L56.04 13.65Q54.87 13.65 54.03 13.17L54.03 13.17L54.03 13.17Q53.20 12.68 52.77 11.86L52.77 11.86L52.77 11.86Q52.33 11.03 52.33 10.02L52.33 10.02L52.33 10.02Q52.33 9.06 52.73 8.25L52.73 8.25L52.73 8.25Q53.13 7.45 53.89 6.98L53.89 6.98L53.89 6.98Q54.66 6.51 55.69 6.51L55.69 6.51L55.69 6.51Q57.01 6.51 57.83 7.28L57.83 7.28L57.83 7.28Q58.65 8.05 58.65 9.41L58.65 9.41L58.65 9.41Q58.65 9.76 58.59 10.08L58.59 10.08L53.62 10.08L53.62 10.08Q53.75 11.41 54.43 11.97L54.43 11.97L54.43 11.97Q55.12 12.53 56.20 12.53L56.20 12.53L56.20 12.53Q57.27 12.53 58.17 12.12L58.17 12.12L58.34 13.12L58.34 13.12Q57.15 13.65 56.04 13.65L56.04 13.65ZM53.73 9.21L57.34 9.21L57.34 9.21Q57.34 8.47 56.92 8.05L56.92 8.05L56.92 8.05Q56.50 7.63 55.66 7.63L55.66 7.63L55.66 7.63Q54.85 7.63 54.39 8.03L54.39 8.03L54.39 8.03Q53.93 8.43 53.73 9.21L53.73 9.21ZM66.15 3.71L67.55 3.71L64.04 13.51L62.64 13.51L59.12 3.71L60.52 3.71L63.34 11.65L66.15 3.71ZM68.46 5.11L68.46 3.71L69.72 3.71L69.72 5.11L68.46 5.11ZM68.46 13.51L68.46 6.65L69.72 6.65L69.72 13.51L68.46 13.51ZM73.37 13.65L73.37 13.65Q72.56 13.65 71.95 13.46L71.95 13.46L71.95 13.46Q71.34 13.27 71.02 13.05L71.02 13.05L71.18 11.83L71.18 11.83Q71.46 12.08 72.04 12.31L72.04 12.31L72.04 12.31Q72.62 12.53 73.32 12.53L73.32 12.53L73.32 12.53Q73.98 12.53 74.33 12.31L74.33 12.31L74.33 12.31Q74.69 12.08 74.69 11.68L74.69 11.68L74.69 11.68Q74.69 11.20 74.30 10.96L74.30 10.96L74.30 10.96Q73.91 10.71 73.32 10.54L73.32 10.54L73.32 10.54Q72.67 10.37 72.23 10.18L72.23 10.18L72.23 10.18Q71.79 10.00 71.48 9.60L71.48 9.60L71.48 9.60Q71.16 9.21 71.16 8.57L71.16 8.57L71.16 8.57Q71.16 7.69 71.79 7.10L71.79 7.10L71.79 7.10Q72.42 6.51 73.74 6.51L73.74 6.51L73.74 6.51Q74.34 6.51 74.76 6.63L74.76 6.63L74.76 6.63Q75.18 6.75 75.60 6.96L75.60 6.96L75.45 8.11L75.45 8.11Q75.11 7.83 74.70 7.67L74.70 7.67L74.70 7.67Q74.30 7.50 73.77 7.50L73.77 7.50L73.77 7.50Q73.15 7.50 72.79 7.73L72.79 7.73L72.79 7.73Q72.44 7.97 72.44 8.43L72.44 8.43L72.44 8.43Q72.44 8.74 72.60 8.93L72.60 8.93L72.60 8.93Q72.77 9.11 73.08 9.24L73.08 9.24L73.08 9.24Q73.39 9.37 74.03 9.56L74.03 9.56L74.03 9.56Q74.83 9.80 75.41 10.23L75.41 10.23L75.41 10.23Q75.99 10.67 75.99 11.61L75.99 11.61L75.99 11.61Q75.99 12.45 75.40 13.05L75.40 13.05L75.40 13.05Q74.80 13.65 73.37 13.65L73.37 13.65Z"></path></g><defs data-v-423bf9ae=""><linearGradient data-v-423bf9ae="" gradientTransform="rotate(25)" id="3be2a0e9-66b0-4e24-b08f-8e5dfc2dd1be" x1="0%" y1="0%" x2="100%" y2="0%"><stop data-v-423bf9ae="" offset="0%" style="stop-color: rgb(0, 10, 104); stop-opacity: 1;"></stop><stop data-v-423bf9ae="" offset="100%" style="stop-color: rgb(0, 196, 238); stop-opacity: 1;"></stop></linearGradient></defs><g data-v-423bf9ae="" id="05d035d7-207c-41af-874b-26082007643c" transform="matrix(1.315789591095648,0,0,1.315789591095648,-0.32368895089565797,-19.9894752983829)" stroke="none" fill="url(#3be2a0e9-66b0-4e24-b08f-8e5dfc2dd1be)"><path d="M15.6 69.9c0-1.4 1.1-2.5 2.5-2.5h23c1.4 0 2.5 1.1 2.5 2.5v.4h12.7v-.4c0-1.4 1.1-2.5 2.5-2.5h23.1c1.4 0 2.5 1.1 2.5 2.5s-1.1 2.5-2.5 2.5h-21c-.8 1.7-2.5 2.9-4.6 2.9H43.7c-2 0-3.8-1.2-4.6-2.9h-21c-1.3 0-2.5-1.1-2.5-2.5zM.4 74.6v-4.7c0-1.4 1.1-2.5 2.5-2.5h4.7V22.3c0-3.6 2.9-6.5 6.5-6.5h71.5c3.5 0 6.4 2.7 6.7 6.3V67.4H97c1.4 0 2.5 1.1 2.5 2.5v4.7c0 5.3-4.3 9.6-9.6 9.6H10c-5.3 0-9.6-4.3-9.6-9.6zm5 0c0 2.5 2.1 4.6 4.6 4.6h80c2.5 0 4.6-2.1 4.6-4.6v-2.2h-4.7c-1.4 0-2.5-1.1-2.5-2.5V22.5c-.1-.9-.9-1.7-1.7-1.7H14.1c-.8 0-1.5.7-1.5 1.5v47.6c0 1.4-1.1 2.5-2.5 2.5H5.4v2.2zm13.9-29.7c0-9.8 7.9-17.7 17.7-17.7 9.8 0 17.7 7.9 17.7 17.7 0 9.8-7.9 17.7-17.7 17.7-9.8 0-17.7-7.9-17.7-17.7zm20.2-12.5v10h10c-1-5-5-9-10-10zM24.3 44.9c0 7 5.7 12.7 12.7 12.7 6.2 0 11.3-4.4 12.5-10.2H37c-1.4 0-2.5-1.1-2.5-2.5V32.4c-5.8 1.2-10.2 6.3-10.2 12.5zm37.2 2.5h14.3c1.4 0 2.5-1.1 2.5-2.5s-1.1-2.5-2.5-2.5H61.5c-1.4 0-2.5 1.1-2.5 2.5s1.2 2.5 2.5 2.5zm0-11.7h14.3c1.4 0 2.5-1.1 2.5-2.5s-1.1-2.5-2.5-2.5H61.5c-1.4 0-2.5 1.1-2.5 2.5s1.2 2.5 2.5 2.5zm0 23.4h7.1c1.4 0 2.5-1.1 2.5-2.5s-1.1-2.5-2.5-2.5h-7.1c-1.4 0-2.5 1.1-2.5 2.5s1.2 2.5 2.5 2.5z"></path></g><!----></svg>